<?xml version="1.0" standalone="no"?><!DOCTYPE svg PUBLIC "-//W3C//DTD SVG 1.1//EN" "http://www.w3.org/Graphics/SVG/1.1/DTD/svg11.dtd"><svg class="icon" height="512" viewBox="0 0 1024 1024" version="1.1" xmlns="http://www.w3.org/2000/svg"><path d="M878.79 531.56c0 19.288-5.566 30.917-20.666 32.959-1.048 0.222-2.538 0.44-3.917 0.44h-81.566v259.145c0 32.682-16.588 47.232-34.887 53.351-3.031 0.936-5.841 1.818-8.598 2.258H285.49c-3.03-0.495-5.841-1.375-8.597-2.258-18.297-6.118-34.888-20.613-34.888-53.351V564.959s-74.127 0.442-85.259 0C138.669 564.297 132 552.503 132 531.56c0-26.565 4.519-32.021 24.747-52.909 24.139-25.188 312.052-325.888 312.052-325.888s15.929-18.407 38.579-17.745c22.818-0.663 38.306 17.745 38.306 17.745s67.844 72.861 140.433 149.91v-70.158s0.218-26.345 37.475-32.022c4.3-0.661 9.259-0.936 14.66-0.936h8.598c5.18 0 10.144 0.218 14.385 0.936 37.534 5.401 37.697 32.022 37.697 32.022v188.488c28.605 29.761 49.546 51.586 55.336 57.703 20.222 20.833 24.522 26.288 24.522 52.854z" fill="#040000" /><path d="M508.342 864.432c-57.983 0-104.988-45.945-104.988-102.63 0-25.989 9.958-49.648 26.242-67.733V479.558c0-42.511 35.256-76.976 78.747-76.976 43.486 0 78.741 34.465 78.741 76.976v214.519c16.285 18.082 26.24 41.742 26.24 67.733 0.007 56.676-46.997 102.622-104.982 102.622z m26.251-146.827V479.558c0-14.17-11.751-25.662-26.244-25.662-14.499 0-26.248 11.492-26.248 25.662V717.605c-15.626 8.885-26.242 25.251-26.242 44.196 0 28.344 23.499 51.316 52.499 51.316 28.992 0 52.492-22.973 52.492-51.316-0.01-18.949-10.629-35.311-26.257-44.196z m-26.251 82.684c-21.74 0-39.375-17.226-39.375-38.487 0-16.729 10.985-30.831 26.249-36.13V594.218h26.249v131.454c15.263 5.299 26.249 19.4 26.249 36.13-0.001 21.254-17.623 38.487-39.372 38.487z" fill="#FFFFFF" /></svg>